<svg width="65" height="58" viewBox="0 0 65 58" fill="none" xmlns="http://www.w3.org/2000/svg">
<path d="M32.874 18.1966H31.7151L32.0558 17.303H32.5912C32.6847 17.5981 32.7789 17.896 32.874 18.1966Z" fill="white"/>
<path d="M33.5066 44.1317V39.3415H31.0579V44.1317H26.2126C29.3196 36.8948 31.0579 28.835 31.0579 20.8228V19.9083L31.2329 19.4609H33.2888L33.5113 20.132V20.8274C33.5113 28.8397 35.2392 36.8995 38.3519 44.1363L33.5066 44.1317Z" fill="white"/>
<path d="M31.2283 19.4609C31.1704 19.6105 31.1124 19.7588 31.0533 19.9083L31.2283 19.4609Z" fill="white"/>
<path d="M32.0569 17.3007C31.9441 17.5974 31.8305 17.8952 31.7162 18.1943L32.0569 17.3007Z" fill="white"/>
<path d="M32.8739 18.1966C32.7789 17.8976 32.685 17.5997 32.5923 17.303L32.8739 18.1966Z" fill="white"/>
<path d="M33.2842 19.4609L33.5067 20.132C33.4317 19.9072 33.3576 19.6835 33.2842 19.4609Z" fill="white"/>
<path d="M39.4424 47.1603H25.1175C23.3398 50.9473 21.129 54.5154 18.5293 57.7931H26.5557C26.5449 57.0344 26.685 56.2812 26.9678 55.5771C27.2506 54.8731 27.6706 54.2323 28.2032 53.692C28.7358 53.1516 29.3705 52.7226 30.0704 52.4297C30.7702 52.1369 31.5213 51.9861 32.28 51.9861C33.0386 51.9861 33.7897 52.1369 34.4896 52.4297C35.1894 52.7226 35.8241 53.1516 36.3568 53.692C36.8894 54.2323 37.3093 54.8731 37.5921 55.5771C37.875 56.2812 38.015 57.0344 38.0043 57.7931H46.0307C43.431 54.5154 41.2201 50.9473 39.4424 47.1603Z" fill="white"/>
<path d="M32.6456 7.2914C33.4411 7.2914 34.0861 6.6464 34.0861 5.85075C34.0861 5.0551 33.4411 4.4101 32.6456 4.4101C31.85 4.4101 31.2051 5.0551 31.2051 5.85075C31.2051 6.6464 31.85 7.2914 32.6456 7.2914Z" fill="white"/>
<path d="M64.56 32.2843C64.5641 37.2103 63.4392 42.0716 61.2715 46.4949C59.1038 50.9181 55.9511 54.7855 52.0557 57.8C47.9049 51.5702 44.1836 45.0647 40.9177 38.3286C38.0591 32.4286 35.5836 26.3505 33.5067 20.1321C33.4294 19.9072 33.3552 19.6835 33.2842 19.461H34.2646C34.4279 19.454 34.5821 19.3842 34.6952 19.2662C34.8083 19.1482 34.8714 18.991 34.8714 18.8276C34.8714 18.6641 34.8083 18.507 34.6952 18.389C34.5821 18.271 34.4279 18.2012 34.2646 18.1942H32.8739C32.7789 17.8952 32.685 17.5973 32.5923 17.3006H34.2646C34.4279 17.2936 34.5821 17.2238 34.6952 17.1058C34.8083 16.9878 34.8714 16.8306 34.8714 16.6672C34.8714 16.5037 34.8083 16.3466 34.6952 16.2286C34.5821 16.1106 34.4279 16.0408 34.2646 16.0338H32.5448C33.1242 14.5769 33.6898 13.0076 34.2229 11.327C34.8208 9.44712 35.3053 7.65528 35.7004 5.97471C35.7653 4.63837 35.0735 3.39823 33.9366 2.82567C33.8335 2.77352 32.2365 2.00278 30.8076 2.99141C30.3469 3.31531 29.9849 3.7606 29.7619 4.27783C29.5389 4.79505 29.4637 5.36397 29.5445 5.9214C30.2607 9.10753 31.1368 12.4895 32.2099 16.0338H30.3904C30.305 16.0301 30.2197 16.0438 30.1397 16.074C30.0596 16.1042 29.9865 16.1502 29.9248 16.2094C29.863 16.2686 29.8139 16.3397 29.7803 16.4183C29.7467 16.497 29.7294 16.5817 29.7294 16.6672C29.7294 16.7527 29.7467 16.8374 29.7803 16.9161C29.8139 16.9947 29.863 17.0658 29.9248 17.125C29.9865 17.1841 30.0596 17.2302 30.1397 17.2604C30.2197 17.2906 30.305 17.3042 30.3904 17.3006H32.0569C31.9441 17.5973 31.8305 17.8952 31.7162 18.1942H30.3904C30.305 18.1905 30.2197 18.2042 30.1397 18.2344C30.0596 18.2646 29.9865 18.3106 29.9248 18.3698C29.863 18.429 29.8139 18.5001 29.7803 18.5787C29.7467 18.6574 29.7294 18.7421 29.7294 18.8276C29.7294 18.9131 29.7467 18.9978 29.7803 19.0765C29.8139 19.1551 29.863 19.2262 29.9248 19.2854C29.9865 19.3445 30.0596 19.3906 30.1397 19.4208C30.2197 19.451 30.305 19.4647 30.3904 19.461H31.2283C31.1738 19.6105 25.7341 32.69 22.3664 39.4459C19.1366 45.9155 15.7469 51.9829 12.3073 57.6424C8.46864 54.6246 5.36602 50.7738 3.23392 46.3807C1.10181 41.9877 -0.00401581 37.1675 1.0958e-05 32.2843C1.0958e-05 14.4541 14.4524 0 32.2794 0C50.1065 0 64.56 14.4541 64.56 32.2843Z" fill="white"/>
</svg>
